HIERARCHY
ROOT hip
{
  OFFSET 0 0 0
  CHANNELS 6 Xposition Yposition Zposition Zrotation Yrotation Xrotation
  JOINT abdomen
  {
    OFFSET 0 20.6881 -0.73152
    CHANNELS 3 Zrotation Xrotation Yrotation
    JOINT chest
    {
      OFFSET 0 11.7043 -0.48768
      CHANNELS 3 Zrotation Xrotation Yrotation
      JOINT neck
      {
        OFFSET 0 22.1894 -2.19456
        CHANNELS 3 Zrotation Xrotation Yrotation
        JOINT head
        {
          OFFSET -0.24384 7.07133 1.2192
          CHANNELS 3 Zrotation Xrotation Yrotation
          JOINT leftEye
          {
            OFFSET 4.14528 8.04674 8.04672
            CHANNELS 3 Zrotation Xrotation Yrotation
            End Site
            {
              OFFSET 1 0 0
            }
          }
          JOINT rightEye
          {
            OFFSET -3.6576 8.04674 8.04672
            CHANNELS 3 Zrotation Xrotation Yrotation
            End Site
            {
              OFFSET 1 0 0
            }
          }
        }
      }
      JOINT rCollar
      {
        OFFSET -2.68224 19.2634 -4.8768
        CHANNELS 3 Zrotation Xrotation Yrotation
        JOINT rShldr
        {
          OFFSET -8.77824 -1.95073 1.46304
          CHANNELS 3 Zrotation Xrotation Yrotation
          JOINT rForeArm
          {
            OFFSET -28.1742 -1.7115 0.48768
            CHANNELS 3 Zrotation Xrotation Yrotation
            JOINT rHand
            {
              OFFSET -22.5879 0.773209 7.07136
              CHANNELS 3 Zrotation Xrotation Yrotation
              JOINT rThumb1
              {
                OFFSET -1.2192 -0.487915 3.41376
                CHANNELS 3 Zrotation Xrotation Yrotation
                JOINT rThumb2
                {
                  OFFSET -3.37035 -0.52449 3.41376
                  CHANNELS 3 Zrotation Xrotation Yrotation
                  End Site
                  {
                    OFFSET -1.78271 -1.18214 1.43049
                  }
                }
              }
              JOINT rIndex1
              {
                OFFSET -7.75947 0.938293 5.60832
                CHANNELS 3 Zrotation Xrotation Yrotation
                JOINT rIndex2
                {
                  OFFSET -2.54057 -0.884171 1.56538
                  CHANNELS 3 Zrotation Xrotation Yrotation
                  End Site
                  {
                    OFFSET -1.62519 -0.234802 1.16502
                  }
                }
              }
              JOINT rMid1
              {
                OFFSET -8.24714 1.18213 3.41376
                CHANNELS 3 Zrotation Xrotation Yrotation
                JOINT rMid2
                {
                  OFFSET -3.10165 -0.590103 1.0647
                  CHANNELS 3 Zrotation Xrotation Yrotation
                  End Site
                  {
                    OFFSET -2.48547 -0.328903 0.83742
                  }
                }
              }
              JOINT rRing1
              {
                OFFSET -8.82822 0.546677 1.51678
                CHANNELS 3 Zrotation Xrotation Yrotation
                JOINT rRing2
                {
                  OFFSET -2.60934 -0.819778 -0.0198488
                  CHANNELS 3 Zrotation Xrotation Yrotation
                  End Site
                  {
                    OFFSET -2.33842 -0.294052 0.168128
                  }
                }
              }
              JOINT rPinky1
              {
                OFFSET -8.27202 -0.0477905 -0.4584
                CHANNELS 3 Zrotation Xrotation Yrotation
                JOINT rPinky2
                {
                  OFFSET -1.82734 -0.647385 -0.700984
                  CHANNELS 3 Zrotation Xrotation Yrotation
                  End Site
                  {
                    OFFSET -1.69225 -0.51767 -0.607171
                  }
                }
              }
            }
          }
        }
      }
      JOINT lCollar
      {
        OFFSET 2.68224 19.2634 -4.8768
        CHANNELS 3 Zrotation Xrotation Yrotation
        JOINT lShldr
        {
          OFFSET 8.77824 -1.95073 1.46304
          CHANNELS 3 Zrotation Xrotation Yrotation
          JOINT lForeArm
          {
            OFFSET 28.1742 -1.7115 0.48768
            CHANNELS 3 Zrotation Xrotation Yrotation
            JOINT lHand
            {
              OFFSET 22.5879 0.773209 7.07136
              CHANNELS 3 Zrotation Xrotation Yrotation
              JOINT lThumb1
              {
                OFFSET 1.2192 -0.487915 3.41376
                CHANNELS 3 Zrotation Xrotation Yrotation
                JOINT lThumb2
                {
                  OFFSET 3.37035 -0.52449 3.41376
                  CHANNELS 3 Zrotation Xrotation Yrotation
                  End Site
                  {
                    OFFSET 1.78271 -1.18214 1.43049
                  }
                }
              }
              JOINT lIndex1
              {
                OFFSET 7.75947 0.938293 5.60832
                CHANNELS 3 Zrotation Xrotation Yrotation
                JOINT lIndex2
                {
                  OFFSET 2.54057 -0.884171 1.56538
                  CHANNELS 3 Zrotation Xrotation Yrotation
                  End Site
                  {
                    OFFSET 1.62519 -0.234802 1.16502
                  }
                }
              }
              JOINT lMid1
              {
                OFFSET 8.24714 1.18213 3.41376
                CHANNELS 3 Zrotation Xrotation Yrotation
                JOINT lMid2
                {
                  OFFSET 3.10165 -0.590103 1.0647
                  CHANNELS 3 Zrotation Xrotation Yrotation
                  End Site
                  {
                    OFFSET 2.48547 -0.328903 0.83742
                  }
                }
              }
              JOINT lRing1
              {
                OFFSET 8.82822 0.546677 1.51678
                CHANNELS 3 Zrotation Xrotation Yrotation
                JOINT lRing2
                {
                  OFFSET 2.60934 -0.819778 -0.0198488
                  CHANNELS 3 Zrotation Xrotation Yrotation
                  End Site
                  {
                    OFFSET 2.33842 -0.294052 0.168128
                  }
                }
              }
              JOINT lPinky1
              {
                OFFSET 8.27202 -0.0477905 -0.4584
                CHANNELS 3 Zrotation Xrotation Yrotation
                JOINT lPinky2
                {
                  OFFSET 1.82734 -0.647385 -0.700984
                  CHANNELS 3 Zrotation Xrotation Yrotation
                  End Site
                  {
                    OFFSET 1.69225 -0.51767 -0.607171
                  }
                }
              }
            }
          }
        }
      }
    }
  }
  JOINT rButtock
  {
    OFFSET -8.77824 4.35084 1.2192
    CHANNELS 3 Zrotation Xrotation Yrotation
    JOINT rThigh
    {
      OFFSET 0 -1.70687 -2.19456
      CHANNELS 3 Zrotation Xrotation Yrotation
      JOINT rShin
      {
        OFFSET 0 -36.8199 0.73152
        CHANNELS 3 Zrotation Xrotation Yrotation
        JOINT rFoot
        {
          OFFSET 0.73152 -45.1104 -5.12064
          CHANNELS 3 Zrotation Xrotation Yrotation
          End Site
          {
            OFFSET -1.1221 -3.69964 12.103
          }
        }
      }
    }
  }
  JOINT lButtock
  {
    OFFSET 8.77824 4.35084 1.2192
    CHANNELS 3 Zrotation Xrotation Yrotation
    JOINT lThigh
    {
      OFFSET 0 -1.70687 -2.19456
      CHANNELS 3 Zrotation Xrotation Yrotation
      JOINT lShin
      {
        OFFSET 0 -36.8199 0.73152
        CHANNELS 3 Zrotation Xrotation Yrotation
        JOINT lFoot
        {
          OFFSET -0.73152 -45.1104 -5.12064
          CHANNELS 3 Zrotation Xrotation Yrotation
          End Site
          {
            OFFSET 1.1221 -3.69964 12.103
          }
        }
      }
    }
  }
}
MOTION
Frames:	5
Frame Time:	0.00833333
4.00241 83.0932 43.833 -6.5803 6.699 10.8958 1.88594 1.31921 -0.0849048 -5.7827 5.68335 -0.0862517 1.98928 4.66439 1.972 8.58795 -4.35716 3.83508 -0.0 0.0 0.0 -0.0 0.0 0.0 -2.49713e-13 3.31567e-14 1.44022e-13 137.906 53.0758 -60.7984 -25.3853 -21.9485 54.3502 -0.0548612 6.66865 0.941516 2.11618e-09 -8.81288e-10 3.02797e-10 3.65819e-09 -1.52159e-09 5.16127e-10 2.11619e-09 -8.81285e-10 3.02785e-10 7.73091 5.47488 0.417314 2.11618e-09 -8.81285e-10 3.02808e-10 2.90554 0.965183 0.102902 2.11619e-09 -8.81282e-10 3.02802e-10 10.2786 0.731801 0.0259123 2.11618e-09 -8.81282e-10 3.02817e-10 2.22167 -0.733487 -0.20892 -2.4974e-13 3.31386e-14 1.43663e-13 174.981 67.7375 104.466 24.2715 -19.613 -50.4801 0.00377676 -1.75824 0.247182 8.9462e-10 -9.46894e-10 -1.66763e-09 1.54873e-09 -1.63576e-09 -2.87875e-09 8.94611e-10 -9.46896e-10 -1.66762e-09 -7.73091 5.47488 -0.417314 8.9462e-10 -9.46896e-10 -1.66763e-09 -2.90554 0.965183 -0.102902 8.94609e-10 -9.46898e-10 -1.66763e-09 -10.2786 0.731801 -0.0259123 8.94623e-10 -9.469e-10 -1.66763e-09 -2.22167 -0.733487 0.20892 -2.03217e-16 0.0 -3.88251e-19 -7.39723 -30.5499 -19.8099 -170.955 81.7624 170.784 -0.249855 -5.95752 -1.28854 2.03217e-16 0.0 3.88251e-19 -3.58085 -29.5816 14.6279 0.151826 22.7235 1.07336 3.04363 -12.5888 8.0351
4.04149 83.1542 44.1385 -6.4665 7.2427 10.7558 1.76814 1.55017 -0.125244 -5.69862 5.64112 -0.111153 1.87703 4.73026 1.8938 8.73301 -4.42616 3.71966 -0.0 0.0 0.0 -0.0 0.0 0.0 -1.37634e-13 2.00773e-13 2.30541e-13 137.806 53.2262 -60.8117 -25.404 -21.9914 54.4203 -0.0544869 6.64609 0.938301 2.81428e-09 -4.0761e-10 -1.31412e-10 4.86304e-09 -6.98593e-10 -2.4365e-10 2.81428e-09 -4.07609e-10 -1.31422e-10 7.73091 5.47488 0.417314 2.81428e-09 -4.07609e-10 -1.31408e-10 2.90554 0.965183 0.102902 2.81428e-09 -4.07607e-10 -1.31408e-10 10.2786 0.731801 0.0259123 2.81428e-09 -4.07606e-10 -1.31395e-10 2.22167 -0.733487 -0.20892 -1.37766e-13 2.00772e-13 2.30183e-13 175.05 67.892 104.287 24.2746 -19.6191 -50.4903 0.00338126 -1.66622 0.234238 9.57583e-10 -1.62125e-09 -1.78685e-09 1.65918e-09 -2.80255e-09 -3.08704e-09 9.57574e-10 -1.62126e-09 -1.78684e-09 -7.73091 5.47488 -0.417314 9.57583e-10 -1.62126e-09 -1.78684e-09 -2.90554 0.965183 -0.102902 9.57573e-10 -1.62126e-09 -1.78684e-09 -10.2786 0.731801 -0.0259123 9.57584e-10 -1.62126e-09 -1.78684e-09 -2.22167 -0.733487 0.20892 -2.03217e-16 0.0 -3.88251e-19 -8.80393 -31.932 -20.408 -173.126 78.6261 172.935 0.0299065 -5.76797 -0.445707 2.03217e-16 0.0 3.88251e-19 -3.82269 -29.1376 14.3459 0.158263 22.4774 1.0828 2.9212 -12.2481 7.80654
4.05592 83.2156 44.4415 -6.4313 7.7698 10.5872 1.7219 1.82776 -0.163319 -5.62034 5.5826 -0.134135 1.75899 4.7862 1.81473 8.86932 -4.49862 3.60331 -0.0 0.0 0.0 -0.0 0.0 0.0 -2.33514e-14 3.60238e-13 2.96286e-13 137.752 53.3926 -60.8763 -25.4198 -22.0279 54.4798 -0.0539069 6.61102 0.933305 3.31193e-09 6.65126e-11 -5.70369e-10 5.7215e-09 1.24633e-10 -1.01036e-09 3.31194e-09 6.65113e-11 -5.70376e-10 7.73091 5.47488 0.417314 3.31193e-09 6.65113e-11 -5.70371e-10 2.90554 0.965183 0.102902 3.31194e-09 6.65117e-11 -5.70366e-10 10.2786 0.731801 0.0259123 3.31193e-09 6.65128e-11 -5.70356e-10 2.22167 -0.733487 -0.20892 -2.35851e-14 3.60256e-13 2.95935e-13 175.107 68.023 104.118 24.2758 -19.6214 -50.4941 0.00303159 -1.57633 0.221595 9.37644e-10 -2.13332e-09 -1.75592e-09 1.626e-09 -3.68854e-09 -3.03547e-09 9.37635e-10 -2.13333e-09 -1.75591e-09 -7.73091 5.47488 -0.417314 9.37644e-10 -2.13332e-09 -1.75591e-09 -2.90554 0.965183 -0.102902 9.37633e-10 -2.13333e-09 -1.75591e-09 -10.2786 0.731801 -0.0259123 9.37643e-10 -2.13333e-09 -1.75591e-09 -2.22167 -0.733487 0.20892 -2.03217e-16 0.0 -3.88251e-19 -10.1665 -33.3245 -20.9813 -174.31 75.6196 174.098 0.308167 -5.57672 0.394166 2.03217e-16 0.0 3.88251e-19 -3.97834 -28.7278 14.0763 0.162408 22.3232 1.08741 2.81544 -11.9401 7.61971
4.04733 83.2744 44.7438 -6.4819 8.2909 10.3868 1.7937 2.16459 -0.206797 -5.57978 5.51146 -0.154619 1.62613 4.82352 1.72591 9.01421 -4.596 3.4727 -0.0 0.0 0.0 -0.0 0.0 0.0 3.71188e-14 4.32541e-13 2.88784e-13 137.736 53.5817 -60.9577 -25.4325 -22.0571 54.5276 -0.0533919 6.57965 0.928836 3.20253e-09 2.82204e-10 -7.7151e-10 5.53177e-09 4.98342e-10 -1.3599e-09 3.20254e-09 2.82202e-10 -7.71517e-10 7.73091 5.47488 0.417314 3.20252e-09 2.82202e-10 -7.71517e-10 2.90554 0.965183 0.102902 3.20253e-09 2.82201e-10 -7.71509e-10 10.2786 0.731801 0.0259123 3.20252e-09 2.82203e-10 -7.71501e-10 2.22167 -0.733487 -0.20892 3.68314e-14 4.32568e-13 2.88437e-13 175.167 68.1277 103.967 24.2776 -19.6249 -50.4998 0.00279377 -1.50907 0.212135 7.12354e-10 -2.12192e-09 -1.47252e-09 1.23664e-09 -3.66874e-09 -2.54596e-09 7.12346e-10 -2.12193e-09 -1.47251e-09 -7.73091 5.47488 -0.417314 7.12355e-10 -2.12192e-09 -1.47252e-09 -2.90554 0.965183 -0.102902 7.12343e-10 -2.12193e-09 -1.47251e-09 -10.2786 0.731801 -0.0259123 7.12352e-10 -2.12193e-09 -1.47251e-09 -2.22167 -0.733487 0.20892 -2.03217e-16 0.0 -3.88251e-19 -11.406 -34.734 -21.4935 -175.04 72.8053 174.807 0.548767 -5.39328 1.11649 2.03217e-16 0.0 3.88251e-19 -4.00709 -28.4035 13.839 0.162148 22.3576 1.08626 2.72938 -11.6857 7.46545
4.0196 83.3277 45.0496 -6.6057 8.8009 10.1487 2.02031 2.55668 -0.254342 -5.58446 5.42969 -0.172322 1.47428 4.842 1.62477 9.17001 -4.70757 3.32235 -0.0 0.0 0.0 -0.0 0.0 0.0 1.99002e-14 3.76038e-13 1.48587e-13 137.773 53.7989 -61.0652 -25.4413 -22.0774 54.561 -0.0524989 6.52233 0.920678 2.03434e-09 6.86064e-11 -5.50158e-10 3.51418e-09 1.25425e-10 -9.69179e-10 2.03434e-09 6.86046e-11 -5.50164e-10 7.73091 5.47488 0.417314 2.03433e-09 6.86045e-11 -5.50165e-10 2.90554 0.965183 0.102902 2.03434e-09 6.86027e-11 -5.50157e-10 10.2786 0.731801 0.0259123 2.03433e-09 6.86049e-11 -5.5015e-10 2.22167 -0.733487 -0.20892 1.96312e-14 3.76062e-13 1.48235e-13 175.215 68.1983 103.852 24.279 -19.6277 -50.5045 0.00266207 -1.47046 0.206706 -1.96557e-12 -1.24462e-09 -7.2136e-10 -2.9865e-14 -2.15049e-09 -1.2454e-09 -1.97226e-12 -1.24463e-09 -7.21347e-10 -7.73091 5.47488 -0.417314 -1.96426e-12 -1.24462e-09 -7.21354e-10 -2.90554 0.965183 -0.102902 -1.97586e-12 -1.24463e-09 -7.21351e-10 -10.2786 0.731801 -0.0259123 -1.96623e-12 -1.24463e-09 -7.21352e-10 -2.22167 -0.733487 0.20892 -2.03217e-16 0.0 -3.88251e-19 -12.5219 -36.1446 -21.9781 -175.531 70.1594 175.278 0.756397 -5.20626 1.71986 2.03217e-16 0.0 3.88251e-19 -3.87385 -28.1755 13.6362 0.15614 22.6056 1.08087 2.66396 -11.4898 7.34092
